<?xml version="1.0" standalone="no"?>
<!DOCTYPE svg PUBLIC "-//W3C//DTD SVG 20010904//EN"
 "http://www.w3.org/TR/2001/REC-SVG-20010904/DTD/svg10.dtd">
<svg version="1.0" xmlns="http://www.w3.org/2000/svg"
 width="500.000000pt" height="500.000000pt" viewBox="0 0 500.000000 500.000000"
 preserveAspectRatio="xMidYMid meet">

<g transform="translate(0.000000,500.000000) scale(0.100000,-0.100000)"
fill="#000000" stroke="none">
<path d="M2150 3365 c-327 -328 -345 -344 -348 -315 l-3 30 -320 0 -319 0 0
-535 0 -535 220 0 220 0 0 102 0 102 44 -43 c39 -38 44 -49 50 -102 l7 -59 52
0 52 0 347 -347 348 -348 349 349 349 348 111 -1 111 -2 0 118 c0 65 0 237 0
382 -1 237 1 263 15 251 13 -11 15 -47 15 -249 -1 -151 -5 -240 -12 -248 -7
-9 -7 -13 1 -13 7 0 11 -38 11 -120 l0 -120 173 1 c190 1 220 7 271 57 47 46
68 116 73 253 7 154 -10 216 -68 259 l-41 29 26 12 c48 22 70 73 74 175 7 159
-36 246 -135 273 -21 6 -113 11 -205 11 l-168 0 0 -156 c0 -138 -2 -155 -15
-144 -12 10 -15 41 -15 156 l0 144 -143 0 -142 0 -315 315 c-173 173 -317 315
-320 315 -3 0 -160 -155 -350 -345z m659 21 l305 -305 -54 -3 -55 -3 -31 -330
c-18 -181 -33 -341 -35 -355 -2 -14 -19 117 -37 290 -19 173 -36 334 -39 358
l-6 42 -101 0 -102 0 66 -535 65 -535 148 0 c81 0 147 2 147 5 0 30 113 928
119 950 6 19 9 -153 10 -450 l1 -480 -355 -355 -355 -355 -340 340 -340 340
70 3 69 3 6 32 c2 18 14 129 25 247 12 118 22 216 24 217 1 1 12 -102 25 -230
12 -127 25 -240 28 -250 4 -16 17 -17 131 -15 l127 3 57 520 c31 286 57 526
57 533 1 9 -26 12 -104 12 -58 0 -105 -1 -105 -2 -5 -38 -50 -578 -51 -613
l-1 -50 -8 40 c-4 22 -18 172 -31 333 l-23 292 -101 0 -101 0 -28 -322 c-25
-297 -35 -378 -37 -302 0 16 -10 144 -23 284 l-24 255 347 348 c190 191 348
347 351 347 3 0 142 -137 309 -304z m398 -368 c-3 -8 -6 -5 -6 6 -1 11 2 17 5
13 3 -3 4 -12 1 -19z m-1603 -102 l7 -89 -78 -79 c-69 -70 -81 -78 -115 -78
l-38 0 0 100 0 99 103 3 102 3 -1 79 c-2 102 11 77 20 -38z m2134 -24 c7 -10
12 -46 12 -92 0 -89 -15 -120 -61 -120 l-29 0 0 120 0 120 33 -6 c17 -4 38
-14 45 -22z m-2084 -439 c17 -167 30 -303 27 -303 -9 0 -301 294 -301 302 0 5
45 8 100 8 l101 0 -3 103 -3 102 -49 3 -49 3 69 70 c67 68 69 69 72 42 2 -15
18 -164 36 -330z m2026 53 c0 -3 -4 -8 -10 -11 -5 -3 -10 -1 -10 4 0 6 5 11
10 11 6 0 10 -2 10 -4z m56 -10 c17 -13 19 -29 22 -131 4 -110 2 -118 -19
-141 -13 -14 -34 -24 -51 -24 l-28 0 0 137 c0 113 3 140 17 155 19 22 33 23
59 4z m-2146 -273 c0 -2 -47 -3 -105 -3 l-105 0 0 107 0 108 105 -105 c58 -58
105 -106 105 -107z"/>
<path d="M590 2545 l0 -535 105 0 105 0 1 258 1 257 52 -255 51 -255 108 -3
107 -3 0 536 0 535 -105 0 -105 0 -2 -247 -3 -248 -43 230 c-24 127 -46 238
-48 248 -5 15 -19 17 -115 17 l-109 0 0 -535z"/>
<path d="M3990 2545 l0 -535 225 0 225 0 0 89 c0 49 -3 96 -6 105 -5 13 -25
16 -115 16 l-109 0 0 120 0 120 100 0 100 0 0 105 0 105 -100 0 -100 0 0 100
0 100 105 0 105 0 0 105 0 105 -215 0 -215 0 0 -535z"/>
<path d="M4480 3055 c0 -8 5 -15 10 -15 6 0 10 -27 10 -60 0 -47 3 -60 15 -60
12 0 15 13 15 60 0 33 4 60 10 60 6 0 10 7 10 15 0 10 -11 15 -35 15 -24 0
-35 -5 -35 -15z"/>
<path d="M4570 2995 c0 -60 3 -75 15 -75 11 0 15 12 16 43 1 23 3 33 6 22 2
-11 6 -30 9 -42 7 -35 29 -27 41 15 l10 37 2 -37 c1 -27 6 -38 16 -38 12 0 15
15 15 75 l0 75 -30 0 c-27 0 -30 -3 -31 -32 l-1 -33 -10 33 c-8 24 -17 32 -34
32 -23 0 -24 -3 -24 -75z"/>
</g>
</svg>
